<svg id="Layer_1" data-name="Layer 1" xmlns="http://www.w3.org/2000/svg" viewBox="0 0 277.41 70.84"><defs><style>.cls-1{fill:none;}.cls-2{fill:#fff;}</style></defs><path class="cls-1" d="M323.63,121.06" transform="translate(-271.37 -120.86)"/><path class="cls-2" d="M295.27,120.94c0,1.24,0,2.82,0,4.64,0,6.93,0,10.4-.05,11.86a23.48,23.48,0,0,0,.11,4.7,21.22,21.22,0,0,0,1.07,4.39,19.28,19.28,0,0,1,12.06-4.93,20.61,20.61,0,0,1,9.65,2.41,22.32,22.32,0,0,1,3.91,2.49c.08-.42.21-1.06.34-1.84.81-4.84.73-8.33.68-14.46,0-1.93-.05-5.17-.06-9.34a25,25,0,0,1,13.67,8.69c4.68,6.06,5,12.83,5.18,16.07a32.44,32.44,0,0,1-.26,6l4.72,2.51c-1.25,1.38-2.49,2.77-3.74,4.16a13.28,13.28,0,0,1,3.21,1.14c.32.17.63.34.91.51l-4.33,4.84c.56.21,1,.36,1.36.46a10.84,10.84,0,0,1,2.32.79,4.5,4.5,0,0,1,1,.79,7.68,7.68,0,0,1-1.57,2.21c-1.41,1.36-2.94,1.72-5.32,2.46-1.75.55-3.44,1.25-5.18,1.81a50.16,50.16,0,0,0-10.67,5c-5.31,3.24-5.46,4.68-9.62,7.47a9,9,0,0,0-2.66,2.61,8.66,8.66,0,0,0-1.14,2.54,2.2,2.2,0,0,1-1.58.74,2.76,2.76,0,0,1-1.87-1.19,7.74,7.74,0,0,1-1.19-1.9,8.7,8.7,0,0,0-2.54-2.86c-2.29-1.62-5.6-3.91-9.68-6.53a82.41,82.41,0,0,0-7.81-4.76c-4.33-1.83-13.07-4.23-14-5.86a4.14,4.14,0,0,1-.38-1,3.66,3.66,0,0,1,.06-1.76l3.67-.68-4.26-5.43,4-1.36c-1.23-1.34-2.45-2.69-3.67-4,1.59-.34,3.61-1,4.54-2.76.74-1.39.41-2.76.23-4.61a33.64,33.64,0,0,1,.43-8.4c1.55-8.46,9.11-13.45,10.84-14.52A25,25,0,0,1,295.27,120.94Z" transform="translate(-271.37 -120.86)"/><polygon class="cls-2" points="89.77 53.52 95.88 53.86 96.22 44.01 120.67 18.2 112.52 17.18 96.22 34.16 95.88 16.84 89.43 16.84 89.77 53.52"/><polygon class="cls-2" points="104.71 41.63 114.22 53.86 121.69 53.18 108.45 37.22 104.71 41.63"/><path class="cls-2" d="M401,174.29l6,0q0-6.34,0-12.69l8.86,0,7.41,12.8h8.15l-9.85-13.59a11.83,11.83,0,0,0,9.17-11.21c0-6-5.29-9.87-8.79-11.08-.32-.11-.6-.18-.8-.24l-20.41,0q.11,3,.2,6h17.32c3,.78,5.08,3.07,5.18,5.43.15,3.39-3.87,5.86-6.7,6.2-.23,0-.42,0-.57,0L401,155.75Z" transform="translate(-271.37 -120.86)"/><polygon class="cls-2" points="180.62 53.35 187.41 53.69 187.92 38.91 173.99 17.35 166.69 17.35 180.11 38.24 180.62 53.35"/><polygon class="cls-2" points="186.56 29.24 190.13 33.65 201.84 17.52 194.71 17.01 186.56 29.24"/><path class="cls-2" d="M480.34,174.21l7.13-.17V162.32l12.23.34c5.95-2,9.8-7.41,9.51-12.91-.43-8.07-9.54-11.52-9.66-11.53h-.32l-19,0,.12,6.23,16-.06c3.55.47,6,3.48,5.77,6.4-.24,3.28-3.73,5.16-6.06,5.49a5.74,5.74,0,0,1-1,.06l-14.59.34Q480.42,165.47,480.34,174.21Z" transform="translate(-271.37 -120.86)"/><path class="cls-2" d="M530.77,149.52l6.73,0,0,24.68-6.78,0Q530.77,161.89,530.77,149.52Z" transform="translate(-271.37 -120.86)"/><polygon class="cls-2" points="248.12 17.39 277.41 17.39 277.37 24.06 248.07 24.1 248.12 17.39"/></svg>